HIERARCHY
ROOT root
{
	OFFSET	0	13.1	24.9
	CHANNELS 6  Xposition Yposition Zposition Xrotation Yrotation Zrotation
	JOINT spine_1
	{
		OFFSET	0	9.99999	0
		CHANNELS 3  Xrotation Yrotation Zrotation
		JOINT spine_2
		{
			OFFSET	0	112	-10
			CHANNELS 3  Xrotation Yrotation Zrotation
			JOINT spine_3
			{
				OFFSET	0	206.5	19.3
				CHANNELS 3  Xrotation Yrotation Zrotation
				JOINT spine_4
				{
					OFFSET	0	110.4	14.6
					CHANNELS 3  Xrotation Yrotation Zrotation
					JOINT neck_1
					{
						OFFSET	0	71.8	-50.3
						CHANNELS 3  Xrotation Yrotation Zrotation
						JOINT neck_2
						{
							OFFSET	0	86.2	-25.8
							CHANNELS 3  Xrotation Yrotation Zrotation
							JOINT head_ee
							{
								OFFSET	0	179.8	-8.7
								CHANNELS 3  Xrotation Yrotation Zrotation
								End Site
								{
									OFFSET	1	0	0
								}
							}
						}
					}
					JOINT left_clavicle
					{
						OFFSET	-43.2	22.4	-70.8
						CHANNELS 3  Xrotation Yrotation Zrotation
						JOINT left_shoulder
						{
							OFFSET	-93.9	-5.79999	48.7
							CHANNELS 3  Xrotation Yrotation Zrotation
							JOINT left_elbow
							{
								OFFSET	-291.4	-30.8	15.2
								CHANNELS 3  Xrotation Yrotation Zrotation
								JOINT left_lowarm_twist
								{
									OFFSET	-110.7	-3.89999	13.6
									CHANNELS 3  Xrotation Yrotation Zrotation
									JOINT left_hand
									{
										OFFSET	-110.7	-3.89999	13.6
										CHANNELS 3  Xrotation Yrotation Zrotation
										JOINT left_ee
										{
											OFFSET	-80.8	-5.10001	12.1
											CHANNELS 3  Xrotation Yrotation Zrotation
											End Site
											{
												OFFSET	1	0	0
											}
										}
									}
								}
							}
						}
					}
					JOINT right_clavicle
					{
						OFFSET	43.2	22.4	-70.8
						CHANNELS 3  Xrotation Yrotation Zrotation
						JOINT right_shoulder
						{
							OFFSET	93.9	-5.79999	48.7
							CHANNELS 3  Xrotation Yrotation Zrotation
							JOINT right_elbow
							{
								OFFSET	291.4	-30.8	15.2
								CHANNELS 3  Xrotation Yrotation Zrotation
								JOINT right_lowarm_twist
								{
									OFFSET	110.7	-3.89999	13.6
									CHANNELS 3  Xrotation Yrotation Zrotation
									JOINT right_hand
									{
										OFFSET	110.7	-3.89999	13.6
										CHANNELS 3  Xrotation Yrotation Zrotation
										JOINT right_ee
										{
											OFFSET	80.8	-5.10001	12.1
											CHANNELS 3  Xrotation Yrotation Zrotation
											End Site
											{
												OFFSET	1	0	0
											}
										}
									}
								}
							}
						}
					}
				}
			}
		}
	}
	JOINT left_hip
	{
		OFFSET	-82.8	-127.5	0.300001
		CHANNELS 3  Xrotation Yrotation Zrotation
		JOINT left_knee
		{
			OFFSET	-28.2	-396.7	2.2
			CHANNELS 3  Xrotation Yrotation Zrotation
			JOINT left_ankle
			{
				OFFSET	-11.7	-411.3	35.4
				CHANNELS 3  Xrotation Yrotation Zrotation
				JOINT left_toes
				{
					OFFSET	0	-60	-88.6
					CHANNELS 3  Xrotation Yrotation Zrotation
					JOINT left_foot_ee
					{
						OFFSET	-22.5	-16.5	-42.2
						CHANNELS 3  Xrotation Yrotation Zrotation
						End Site
						{
							OFFSET	1	0	0
						}
					}
				}
			}
		}
	}
	JOINT right_hip
	{
		OFFSET	82.8	-127.5	0.300001
		CHANNELS 3  Xrotation Yrotation Zrotation
		JOINT right_knee
		{
			OFFSET	28.2	-396.7	2.2
			CHANNELS 3  Xrotation Yrotation Zrotation
			JOINT right_ankle
			{
				OFFSET	11.7	-411.3	35.4
				CHANNELS 3  Xrotation Yrotation Zrotation
				JOINT right_toes
				{
					OFFSET	0	-60	-88.6
					CHANNELS 3  Xrotation Yrotation Zrotation
					JOINT right_foot_ee
					{
						OFFSET	22.5	-16.5	-42.2
						CHANNELS 3  Xrotation Yrotation Zrotation
						End Site
						{
							OFFSET	1	0	0
						}
					}
				}
			}
		}
	}
}
MOTION
Frames: 11
Frame Time: 0.02
2498.44 607.885 -790.232 -163.81 -46.1942 -166.147 6.43743 0.379954 0.269685 6.4374 0.362023 0.293316 6.43927 0.331145 0.327778 6.43932 0.378755 0.271366 -18.4132 -0.271892 -2.0025 -18.4024 0.549562 -1.97302 -0.0 0.0 -0.0 8.08317 23.9379 13.9466 -68.3649 -43.9724 54.1765 0.231466 -6.54122 0.0132272 -22.1164 -1.27951 2.50425 -2.71371 -27.8913 -30.2249 -0.0 0.0 -0.0 12.5931 26.7639 -24.6489 -17.4052 13.4923 -52.8019 2.31619 48.919 -1.05369 53.4849 1.22944 6.47557 6.27692 27.4625 -29.5324 0.0 0.0 0.0 41.5109 11.7915 -8.29856 -8.69925 0.259238 1.30862 40.7372 23.7215 -5.19736 40.1128 -0.0 -0.0 -0.0 0.0 -0.0 10.3701 3.70171 5.49456 -40.6017 0.505488 -6.08229 22.5591 -25.8155 3.21599 21.468 -0.0 -0.0 0.0 0.0 0.0 
2528.66 608.137 -783.508 -164.389 -46.5514 -165.926 6.51184 0.181056 0.14104 6.51184 0.171714 0.152276 6.5123 0.155976 0.16836 6.5123 0.180607 0.141614 -19.1935 -0.725752 -2.81049 -19.1713 0.0695714 -2.9075 -0.0 0.0 -0.0 7.73801 23.6808 13.4817 -66.9911 -43.8036 55.012 0.278907 -7.8665 0.0191766 -19.7387 -1.09654 2.26078 -3.47879 -25.5852 -35.1685 -0.0 0.0 -0.0 12.2058 26.9823 -23.736 -17.9146 15.6138 -55.0719 1.94542 43.9364 -0.78481 56.2206 1.44925 6.74855 5.13837 27.428 -21.6682 0.0 0.0 0.0 40.6742 9.90773 -8.11099 -11.8995 0.304208 1.79755 42.0076 22.0646 -5.26465 39.3693 -0.0 -0.0 -0.0 0.0 -0.0 10.6261 6.11205 5.04296 -45.2155 0.831465 -6.71244 16.1163 -27.9721 2.38943 15.8707 -0.0 -0.0 0.0 0.0 0.0 
2554.53 620.594 -773.813 -164.075 -45.9353 -165.796 6.46065 0.279957 0.23862 6.46064 0.264206 0.255951 6.46182 0.237625 0.280803 6.46182 0.27899 0.239751 -18.669 1.83969 -0.630371 -18.6872 3.87673 0.137147 -0.0 0.0 -0.0 8.42277 23.6805 14.4731 -66.8191 -44.5493 51.5391 0.204157 -5.77503 0.0102976 -19.2196 -1.05796 2.20664 -4.29392 -26.7135 -42.0209 -0.0 0.0 -0.0 13.138 26.9309 -25.8827 -20.051 12.6589 -55.121 1.92265 43.5996 -0.769059 55.8916 1.42212 6.71627 4.67156 25.4063 -19.7652 0.0 0.0 0.0 38.9416 11.1514 -7.90471 -11.8792 0.304009 1.79444 40.5497 20.2085 -5.08402 37.6712 -0.0 -0.0 -0.0 0.0 -0.0 14.6286 10.5163 3.06911 -51.753 1.37825 -7.55681 6.70422 -29.0099 1.03121 12.8284 -0.0 -0.0 0.0 0.0 0.0 
2579.64 622.155 -765.785 -165.252 -46.4882 -165.963 6.36608 0.181304 -0.00394081 6.36606 0.181187 0.00760405 6.3661 0.179506 0.0257705 6.36615 0.181323 -0.00290272 -18.7859 1.56112 -1.05444 -18.7994 3.56401 -0.364439 -0.0 0.0 -0.0 8.33415 22.801 14.4635 -61.8563 -42.8901 52.2813 0.196148 -5.54991 0.00950731 -15.6133 -0.803714 1.8213 -5.32852 -26.0655 -51.0161 -0.0 0.0 -0.0 12.997 26.7202 -25.5835 -21.1257 12.7543 -56.1466 1.83235 42.2258 -0.707572 56.1899 1.44671 6.74554 3.25823 22.091 -12.104 0.0 0.0 0.0 37.1813 11.9387 -8.33159 -11.9457 0.304657 1.80463 39.6467 16.01 -4.91671 38.1024 -0.0 -0.0 -0.0 0.0 -0.0 16.2121 12.443 0.94079 -56.4845 1.83258 -8.12688 2.58557 -29.1747 0.402319 12.8241 -0.0 -0.0 0.0 0.0 0.0 
2600.11 624.726 -757.975 -167.39 -45.7867 -168.093 5.8659 0.354774 0.0898119 5.86584 0.34834 0.112205 5.86658 0.334014 0.149553 5.86673 0.353441 0.0949241 -18.5229 4.03566 -0.573655 -18.6047 8.07392 1.05093 -0.0 0.0 -0.0 7.52091 22.7531 13.2725 -59.8599 -43.8473 50.8842 0.310097 -8.73329 0.0236792 -15.4637 -0.793694 1.80497 -5.25283 -25.6317 -50.1733 -0.0 0.0 -0.0 13.1793 27.1229 -25.954 -23.1691 14.1381 -55.8259 1.78312 41.4506 -0.674732 58.0589 1.6042 6.926 2.95073 21.6538 -10.2751 0.0 0.0 0.0 34.8852 11.5415 -8.34463 -13.4298 0.316045 2.03204 37.6593 14.9375 -4.71601 38.9428 -0.0 -0.0 -0.0 0.0 -0.0 19.4948 17.9281 -1.55391 -61.8389 2.40179 -8.72486 6.13523 -26.7632 0.93193 13.2782 -0.0 -0.0 0.0 0.0 0.0 
2624.11 630.154 -754.225 -167.52 -46.4206 -168.143 5.79397 0.243399 -0.109059 5.79394 0.249845 -0.0933494 5.79357 0.258625 -0.0651917 5.79364 0.245083 -0.105219 -20.5759 4.3661 0.759123 -20.6707 8.04291 2.57661 -0.0 0.0 -0.0 7.07833 22.863 12.616 -52.0464 -43.2188 50.315 0.363097 -10.1968 0.0323955 -13.1294 -0.642982 1.54704 -6.63533 -24.4255 -65.2368 -0.0 0.0 -0.0 12.3823 27.3224 -24.0976 -24.1012 15.9653 -56.8976 1.65617 39.3629 -0.592427 59.4543 1.72559 7.05737 1.70569 16.1075 -4.57721 0.0 0.0 0.0 34.4299 12.0464 -7.57472 -15.1653 0.321886 2.29826 37.7714 16.8429 -4.75602 38.3768 -0.0 -0.0 -0.0 0.0 -0.0 20.3425 18.9538 -2.05363 -62.9224 2.52368 -8.83933 6.89748 -22.31 1.0218 12.588 -0.0 -0.0 0.0 0.0 0.0 
2651.8 631.959 -744.527 -166.341 -45.933 -167.573 6.17615 0.248623 -0.0680546 6.17612 0.25245 -0.052096 6.17593 0.256493 -0.0256156 6.17602 0.249229 -0.0658027 -18.5959 3.93267 0.780058 -18.6586 7.15557 2.27472 -0.0 0.0 -0.0 6.32435 23.7481 11.4594 -49.4807 -43.7314 48.9789 0.431045 -12.0534 0.045508 -13.2921 -0.653146 1.56521 -6.80449 -24.1024 -67.5562 -0.0 0.0 -0.0 12.0372 27.3934 -23.3015 -25.0377 14.1979 -59.5928 1.57608 37.9779 -0.542377 57.657 1.56983 6.88763 1.37557 13.3331 -3.59029 0.0 0.0 0.0 33.256 13.3428 -6.67711 -14.3299 0.32008 2.17008 38.7809 16.2625 -4.84129 39.6791 -0.0 -0.0 -0.0 0.0 -0.0 21.6697 22.4465 -3.67389 -62.441 2.46926 -8.78875 6.70886 -19.4563 0.983212 12.5702 -0.0 -0.0 0.0 0.0 0.0 
2673.01 631.424 -739.022 -165.479 -46.6777 -166.863 6.39024 0.0831452 -0.227225 6.39026 0.0974356 -0.221474 6.38986 0.119109 -0.210612 6.38981 0.0843517 -0.22678 -17.4731 3.92281 1.76466 -17.5125 6.5664 3.11532 -0.0 0.0 -0.0 5.74228 24.0736 10.6202 -47.4652 -45.2515 48.5215 0.486572 -13.5519 0.0578135 -15.105 -0.769854 1.76574 -7.20078 -21.4903 -73.3384 -0.0 0.0 -0.0 11.0408 24.0663 -21.4034 -26.4179 14.7596 -60.377 1.68733 39.8873 -0.612297 57.292 1.53886 6.85257 -0.522855 2.85654 4.72637 0.0 0.0 0.0 31.8453 13.247 -5.62844 -13.5564 0.316744 2.05146 39.0095 15.572 -4.85137 40.1436 -0.0 -0.0 -0.0 0.0 -0.0 22.5524 21.1345 -3.35877 -62.7973 2.50949 -8.82622 5.8398 -17.1562 0.851822 10.7588 -0.0 -0.0 0.0 0.0 0.0 
2698.94 634.67 -732.941 -163.842 -46.35 -165.307 6.81453 0.0216151 -0.296096 6.81457 0.0404126 -0.29412 6.8143 0.0675014 -0.289108 6.81419 0.0209952 -0.29614 -17.9363 1.19368 2.83588 -17.9141 0.753167 3.10193 -0.0 0.0 -0.0 5.19023 24.0782 9.85283 -43.7014 -45.7666 48.1204 0.546511 -15.1485 0.0726706 -14.1366 -0.706721 1.65908 -7.39649 -20.9902 -77.3243 -0.0 0.0 -0.0 11.3102 25.1502 -21.9042 -27.6727 13.5691 -61.694 1.57159 37.8986 -0.539615 58.3123 1.626 6.95007 -1.35144 -1.72183 8.28532 0.0 0.0 0.0 31.6473 13.5881 -5.06098 -15.3124 0.32201 2.32081 41.8665 19.1162 -5.17644 39.1164 -0.0 -0.0 -0.0 0.0 -0.0 23.771 21.945 -3.8446 -62.3463 2.4586 -8.77875 6.16898 -14.165 0.892801 10.5653 -0.0 -0.0 0.0 0.0 0.0 
2712.29 640.697 -717.687 -165.526 -46.3599 -166.625 6.25399 0.219831 -0.370098 6.25403 0.242935 -0.35536 6.25249 0.278068 -0.328598 6.25241 0.222682 -0.368389 -16.6096 3.26703 4.32147 -16.5709 3.82093 5.21962 -0.0 0.0 -0.0 5.12346 21.9715 9.84346 -47.2059 -50.4708 41.9632 0.563251 -15.5902 0.0771075 -12.3927 -0.597624 1.4644 -7.36993 -20.5756 -76.4977 -0.0 0.0 -0.0 10.7084 25.8702 -20.4675 -26.0894 16.8543 -65.2258 1.23557 31.468 -0.348106 57.9722 1.59676 6.91774 -1.4331 -3.49239 8.02741 0.0 0.0 0.0 28.4108 12.4681 -5.5477 -15.0791 0.321786 2.28503 41.7167 18.8698 -5.15765 39.7392 -0.0 -0.0 -0.0 0.0 -0.0 32.7858 24.2545 -8.74249 -68.5247 3.18731 -9.39352 6.67686 -20.5906 0.982713 8.21266 -0.0 -0.0 0.0 0.0 0.0 
2726.95 643.153 -718.906 -164.789 -47.1765 -165.204 5.93668 0.0621626 -0.596292 5.93687 0.0999796 -0.591128 5.93564 0.163214 -0.57688 5.93518 0.0700597 -0.595416 -17.1207 2.87713 1.73132 -17.1344 4.56083 2.67645 -0.0 0.0 -0.0 5.99082 20.2936 11.2014 -46.4564 -53.078 37.4597 0.647571 -17.7857 0.101325 -9.30605 -0.419275 1.11212 -7.4306 -18.8623 -77.0063 -0.0 0.0 -0.0 9.8003 25.6125 -18.4583 -27.1025 16.6508 -65.3538 1.20657 30.8655 -0.333098 55.7175 1.40784 6.69913 -0.809165 -3.90808 3.70067 0.0 0.0 0.0 27.2955 15.3208 -5.12571 -12.0752 0.305885 1.82445 41.6283 20.2479 -5.18239 37.8828 -0.0 -0.0 -0.0 0.0 -0.0 34.7845 23.3507 -8.92712 -67.6723 3.08286 -9.31338 7.03668 -24.3484 1.05215 6.52335 -0.0 -0.0 0.0 0.0 0.0 
